PathFileType	4	(X/Y/Z)	C:\Users\Basilio\Documents\Thesis Gigler\squatting_fais\c3dfiles\044\SLS_back_pre5\markers_experimental.trc
DataRate	CameraRate	NumFrames	NumMarkers	Units	OrigDataRate	OrigDataStartFrame	OrigNumFrames
200.000000	200.000000	4	63	mm	200.000000	174	1393
Frame#	Time	FHD			LBHD			RBHD			C7			T10			LSHO			LUUPA			LMUPA			LDUPA			LLEP			LMEP			LUL			LRFIN			RSHO			RUPA1			RMUPA			RDUPA			RLEP			RMEP			RUL			RUFIN			LASI			RASI			USACR			LSACR			RSACR			LTHI1			LTHI2			LTHI3			LTHI4			LLFC			LMFC			LTIB1			LTIB2			LTIB3			LTIB4			LLMAL			LMMAL			LHEE			LMT1			LMT2			LMT5			RTHI			RTHI2			RTHI3			RTHI4			RLFC			RMFC			RTIB1			RTIB2			RTIB3			RTIB4			RLMAL			RHEE			RMT1			RMT2			RMT5			RMMAL			CLAV			LRAD			RRAD			*61			*62			
		X1	Y1	Z1	X2	Y2	Z2	X3	Y3	Z3	X4	Y4	Z4	X5	Y5	Z5	X6	Y6	Z6	X7	Y7	Z7	X8	Y8	Z8	X9	Y9	Z9	X10	Y10	Z10	X11	Y11	Z11	X12	Y12	Z12	X13	Y13	Z13	X14	Y14	Z14	X15	Y15	Z15	X16	Y16	Z16	X17	Y17	Z17	X18	Y18	Z18	X19	Y19	Z19	X20	Y20	Z20	X21	Y21	Z21	X22	Y22	Z22	X23	Y23	Z23	X24	Y24	Z24	X25	Y25	Z25	X26	Y26	Z26	X27	Y27	Z27	X28	Y28	Z28	X29	Y29	Z29	X30	Y30	Z30	X31	Y31	Z31	X32	Y32	Z32	X33	Y33	Z33	X34	Y34	Z34	X35	Y35	Z35	X36	Y36	Z36	X37	Y37	Z37	X38	Y38	Z38	X39	Y39	Z39	X40	Y40	Z40	X41	Y41	Z41	X42	Y42	Z42	X43	Y43	Z43	X44	Y44	Z44	X45	Y45	Z45	X46	Y46	Z46	X47	Y47	Z47	X48	Y48	Z48	X49	Y49	Z49	X50	Y50	Z50	X51	Y51	Z51	X52	Y52	Z52	X53	Y53	Z53	X54	Y54	Z54	X55	Y55	Z55	X56	Y56	Z56	X57	Y57	Z57	X58	Y58	Z58	X59	Y59	Z59	X60	Y60	Z60	X61	Y61	Z61	X62	Y62	Z62	X63	Y63	Z63	

175	0.87	-216.4364776611329	1798.082885742188	-935.6174926757815	-348.4346008300782	1751.83251953125	-1005.156921386719	-383.3624267578126	1734.912353515625	-842.6597290039065	-392.9091796875001	1557.894409179688	-929.5478515625002	-378.4833068847657	1255.147094726563	-917.389099121094	-301.4871520996094	1585.530517578125	-1076.3466796875	-139.186752319336	1575.0224609375	-1179.344970703125	-111.4389038085938	1586.583374023438	-1138.666137695313	-70.96257781982423	1574.752807617188	-1182.367309570313	-12.49823665618897	1576.816162109375	-1173.526733398438	-16.16527366638184	1501.425903320313	-1164.057006835938	239.4437561035157	1601.933715820313	-1052.150756835938	251.7779388427735	1616.797973632813	-950.557556152344	-299.3720092773438	1573.858276367188	-773.2736816406252	-141.5994720458985	1560.787841796875	-675.1554565429689	-113.8131332397461	1576.443237304688	-715.4273681640626	-71.93231201171876	1564.2568359375	-672.9807739257814	-11.55792236328125	1571.255737304688	-683.8429565429689	-9.422554016113283	1489.832153320313	-693.3637695312501	243.8424377441407	1598.237060546875	-804.1940917968752	244.0587768554688	1579.434448242188	-917.936218261719	-203.3807067871094	1066.134643554688	-1018.917419433594	-190.8616485595703	1052.258056640625	-802.4062500000002	-366.0696411132813	1110.9326171875	-900.5043945312502	-372.7233581542969	1077.569580078125	-926.5775146484377	-367.8239746093751	1080.163330078125	-869.2891235351565	-288.3408813476563	825.6654052734377	-1092.2587890625	-251.1145477294922	749.7290039062501	-1092.013061523438	-203.6828613281251	754.5349121093751	-1086.944702148438	-274.9139404296876	695.7173461914064	-1080.130981445313	-250.1600036621094	537.2955932617189	-1069.200805664063	-243.3336486816407	528.9330444335939	-947.0584106445315	-245.2351837158204	359.7962341308594	-996.3399047851565	-273.0484008789063	315.1472473144532	-1068.23681640625	-245.0679626464844	311.0917968750001	-1030.190673828125	-270.8041381835938	236.2391662597657	-1001.799194335938	-332.6406250000001	127.3447723388672	-1051.540649414063	-315.3929138183594	131.9473266601563	-966.134948730469	-397.8638305664064	103.5334091186524	-1005.538635253906	-191.7039642333985	58.75729751586915	-980.590515136719	-190.1558837890625	61.72941970825197	-1027.467895507813	-226.6578521728516	48.38150787353517	-1074.759521484375	-266.9028015136719	778.3842773437502	-714.3220825195314	-220.4803466796876	729.4636840820314	-707.8167724609376	-187.9925842285157	735.1785278320314	-711.4587402343751	-234.9405212402344	647.2159423828126	-719.3195190429689	-229.8526306152344	538.3062133789064	-715.8930053710939	-234.3659667968751	524.2927856445314	-837.091247558594	-207.7015075683594	403.5522766113282	-733.9484863281251	-287.7359008789063	349.8704833984376	-681.4886474609376	-248.8036499023438	334.0602111816407	-699.0321655273439	-249.4464569091797	280.6096191406251	-722.0451660156251	-342.5695495605469	141.4396514892578	-695.1940917968751	-406.0684509277345	114.5757217407227	-738.6597900390626	-202.0613098144532	63.34566879272462	-764.9360351562501	-198.0030517578126	57.63925170898439	-729.7814941406251	-236.3489532470704	45.79816818237305	-675.6815185546876	-323.2975769042969	145.8120269775391	-778.245544433594	nan	nan	nan	nan	nan	nan	nan	nan	nan	nan	nan	nan	nan	nan	nan	
176	0.875	-216.2155761718751	1798.135986328125	-936.5981445312502	-348.4284973144532	1751.759765625	-1006.192749023438	-382.9731140136719	1735.006591796875	-843.8464965820315	-392.7684020996095	1558.024169921875	-930.7881469726565	-378.5935363769532	1255.058227539063	-918.472839355469	-301.5396118164063	1585.600708007813	-1077.230102539063	-139.2278594970703	1574.988647460938	-1180.271850585938	-111.0297927856446	1586.66357421875	-1139.739501953125	-70.65133666992189	1574.58203125	-1183.021850585938	-12.15555477142334	1576.845458984375	-1174.320190429688	-16.08489036560059	1501.235229492188	-1165.040649414063	239.7037506103516	1601.991455078125	-1053.04296875	251.586898803711	1617.14990234375	-951.5706176757815	-299.1973876953126	1573.627319335938	-774.279479980469	-141.5581817626953	1560.469360351563	-676.2555541992189	-113.6464996337891	1576.345336914063	-716.3541870117189	-71.97579193115236	1564.22705078125	-673.9741821289064	-11.54163360595703	1570.988647460938	-684.6174316406251	-9.147731781005861	1489.825927734375	-694.7382202148439	243.990707397461	1598.115844726563	-805.014587402344	244.0116729736329	1579.408569335938	-918.691101074219	-201.5184326171876	1066.705444335938	-1020.856384277344	-191.1429138183594	1052.17138671875	-803.2158813476565	-366.2014160156251	1110.1025390625	-901.1931152343752	-372.7444763183594	1077.591918945313	-927.7064208984377	-368.1250610351563	1080.246459960938	-870.2761840820315	-288.5657653808594	825.5773925781252	-1092.795776367188	-251.1798400878907	749.6955566406251	-1092.573974609375	-203.8572998046876	754.4965820312501	-1087.62060546875	-274.9758605957032	695.4950561523439	-1080.755126953125	-250.1712188720704	537.1062622070314	-1069.698120117188	-243.5421295166016	528.9918823242189	-947.5703125000002	-245.3079071044922	359.7545166015626	-996.649841308594	-273.1421813964844	315.0502319335938	-1068.476806640625	-245.1895294189454	311.0592346191407	-1030.442138671875	-270.8673095703126	236.2328033447266	-1001.905151367188	-332.6421813964844	126.9160537719727	-1051.62548828125	-315.4174499511719	131.9010925292969	-966.1519165039065	-397.8774719238282	103.5603179931641	-1005.576232910156	-191.755126953125	58.85741806030275	-980.6238403320315	-190.1838836669922	61.72737884521486	-1027.470703125	-226.7246704101563	48.35624313354494	-1074.712036132813	-266.8864746093751	778.2612915039065	-715.0447387695314	-220.4877166748047	729.5397949218751	-708.1188964843751	-187.9154357910157	735.2770996093751	-711.9160156250001	-234.6505432128907	647.3929443359376	-719.7250976562501	-229.3690185546876	538.4938354492189	-716.1520996093751	-233.617904663086	524.1977539062501	-837.3100585937502	-207.3088531494141	403.5401306152345	-734.0018310546876	-287.5912475585938	349.9762268066407	-681.5077514648439	-248.688949584961	334.2361145019532	-699.0715332031251	-249.5328674316407	281.1209411621094	-722.0575561523439	-342.3277587890626	141.7305297851563	-695.1955566406251	-405.9667358398439	114.7109069824219	-738.6031494140626	-202.0107727050782	63.16522598266603	-764.9945068359376	-197.5930786132813	57.55293273925783	-729.5301513671876	-236.3015747070313	45.76180648803712	-675.6549072265626	-323.0242919921876	145.99951171875	-778.1606445312502	nan	nan	nan	nan	nan	nan	nan	nan	nan	nan	nan	nan	nan	nan	nan	
177	0.88	-215.4845733642579	1798.039916992188	-937.5909423828127	-348.1152343750001	1751.811279296875	-1007.397155761719	-382.9429016113282	1734.938354492188	-844.9539184570315	-392.6417541503907	1558.08056640625	-931.899841308594	-378.6366577148438	1255.053955078125	-919.3181152343752	-301.3669433593751	1585.362060546875	-1078.400512695313	-138.8491821289063	1575.0869140625	-1181.192016601563	-110.7876052856446	1586.634521484375	-1140.685913085938	-70.39138031005861	1574.644165039063	-1184.200317382813	-11.84580326080322	1576.931762695313	-1175.508666992188	-16.07929229736328	1501.0888671875	-1165.933837890625	239.9486236572266	1601.888916015625	-1053.764770507813	251.7079162597657	1616.95458984375	-952.2684326171877	-299.2155456542969	1573.788940429688	-775.4201660156252	-141.5492553710938	1560.381958007813	-677.3523559570314	-113.5996398925782	1576.44677734375	-717.3914794921876	-71.75204467773439	1564.056640625	-674.9583129882814	-11.51056289672852	1570.902099609375	-685.6732788085939	-9.328866958618166	1489.821655273438	-695.4908447265626	243.9220581054688	1597.895141601563	-805.6652832031252	244.1611785888672	1579.2353515625	-919.511413574219	-201.8423004150391	1066.529296875	-1021.542114257813	-191.544677734375	1052.060913085938	-804.1044921875002	-366.6530456542969	1110.20263671875	-902.2918090820315	-372.8362121582032	1077.435668945313	-928.5278320312502	-368.4745178222657	1080.083129882813	-871.171813964844	-288.5493164062501	825.455749511719	-1093.523193359375	-251.3259735107422	749.5427856445314	-1093.351806640625	-203.8382873535157	754.4821777343751	-1088.318603515625	-275.0851135253907	695.4815673828126	-1081.296997070313	-250.8927917480469	537.3090820312501	-1070.213012695313	-243.7452087402344	528.8204345703126	-947.7539062500002	-245.335678100586	359.7214355468751	-996.8882446289065	-273.3366088867188	314.8729248046876	-1068.615844726563	-244.9211730957032	311.1159667968751	-1030.906494140625	-270.9002075195313	236.1899871826172	-1002.061340332031	-332.5793151855469	126.8328399658203	-1051.640014648438	-315.4214172363282	131.92626953125	-966.1550292968752	-397.9381408691407	103.5734252929688	-1005.597778320313	-191.7649841308594	58.758358001709	-980.6511840820315	-190.1485290527344	61.7412796020508	-1027.421875	-226.7027587890626	48.36423873901369	-1074.699584960938	-266.9333190917969	778.2375488281252	-715.7289428710939	-220.4720458984376	729.4942016601564	-708.6254882812501	-187.86669921875	735.4216918945314	-712.2480468750001	-234.4645080566407	647.5504760742189	-720.1782836914064	-228.9759368896485	538.5584716796876	-716.3204345703126	-233.1047058105469	524.1568603515626	-837.5086669921877	-207.037826538086	403.7415771484376	-734.0162963867189	-287.3944396972657	350.2140197753907	-681.5753173828126	-248.4954681396485	334.3770751953126	-699.1339721679689	-249.3966827392579	281.2906494140626	-722.0075073242189	-342.2135620117188	141.8490905761719	-695.1085815429689	-405.7333068847657	115.1700744628907	-738.6818847656251	-201.9653472900391	63.23229217529298	-764.9530029296876	-197.5798645019532	57.56921005249025	-729.4859619140626	-236.3360595703126	45.76634597778321	-675.6559448242189	-322.9064025878907	146.2129211425782	-778.157653808594	nan	nan	nan	nan	nan	nan	nan	nan	nan	nan	nan	nan	nan	nan	nan	
178	0.885	-215.0497283935547	1797.80712890625	-938.7556762695315	-347.9186706542969	1751.581176757813	-1008.339721679688	-382.7909545898438	1734.859497070313	-846.1504516601565	-392.3967590332032	1557.867309570313	-932.9757080078127	-378.4712829589844	1255.074462890625	-920.4388427734377	-300.8581848144532	1585.39599609375	-1079.4658203125	-138.7132568359375	1574.865356445313	-1182.234375	-110.6256790161133	1586.619506835938	-1141.6796875	-70.34167480468751	1574.61572265625	-1185.001831054688	-11.65912342071533	1576.930908203125	-1176.273071289063	-15.66664695739746	1501.154541015625	-1166.976196289063	240.1968078613282	1601.92333984375	-1054.700073242188	251.9419555664063	1616.664916992188	-952.905700683594	-299.0816650390626	1573.667358398438	-776.4649047851565	-141.552001953125	1560.246215820313	-678.4221191406251	-113.7348098754883	1576.385375976563	-718.5597534179689	-71.77983856201173	1563.901489257813	-675.9403686523439	-11.57004642486572	1570.879760742188	-686.7670898437501	-9.279910087585451	1489.510864257813	-696.4877929687501	243.8312377929688	1597.609741210938	-806.5244750976565	244.6808319091797	1579.296997070313	-920.5170898437502	-201.8328247070313	1066.519653320313	-1022.542175292969	-191.86572265625	1051.975341796875	-804.926208496094	-366.7848815917969	1110.334228515625	-903.2812500000002	-373.0008850097657	1077.471557617188	-929.5412597656252	-368.8572387695313	1080.130859375	-872.1243896484377	-288.6143798828126	825.335632324219	-1094.36669921875	-251.4224243164063	749.3240356445314	-1094.077392578125	-203.9159393310547	754.3832397460939	-1088.898193359375	-275.1030273437501	695.3441772460939	-1081.947631835938	-250.9615631103516	537.2920532226564	-1070.612182617188	-244.4356994628907	529.7065429687501	-949.006530761719	-245.2469177246094	359.6682434082032	-997.131042480469	-273.9162292480469	314.9669799804688	-1068.658447265625	-244.9602355957032	311.1131286621094	-1031.08740234375	-270.9166870117188	236.1575927734376	-1002.166381835938	-332.6848449707032	126.7294158935547	-1051.705688476563	-315.4516296386719	131.8829803466797	-966.1440429687502	-397.9696350097657	103.5311050415039	-1005.689208984375	-191.6945343017578	58.71200180053712	-980.5083618164065	-190.1297149658203	61.7331008911133	-1027.440185546875	-226.8429412841797	48.32635879516603	-1074.6748046875	-266.8610839843751	778.1651000976565	-716.3439941406251	-220.1797027587891	729.5137329101564	-709.3987426757814	-187.9162139892578	735.4635009765626	-712.6943359375001	-234.2263183593751	647.4705200195314	-720.4583129882814	-228.3902435302735	538.7836914062501	-716.7893066406251	-232.6399688720704	524.1479492187501	-837.7080078125002	-206.596908569336	403.9421691894532	-734.1715698242189	-287.2795410156251	350.3670349121094	-681.6403808593751	-248.2230224609376	334.5275573730469	-699.2148437500001	-249.1945495605469	281.4654235839844	-722.0432128906251	-342.1174621582032	141.9629211425782	-695.0126953125001	-405.6011657714845	115.3723068237305	-738.6846923828126	-201.9980926513672	63.21840286254884	-764.9487304687501	-197.4668579101563	57.53845596313478	-729.4773559570314	-236.2934875488282	45.75521087646485	-675.6385498046876	-322.5837707519532	146.4200592041016	-777.9548339843752	nan	nan	nan	nan	nan	nan	nan	nan	nan	nan	nan	nan	nan	nan	nan	
